#!OML:ASF H:\Not Pregnant\Project 1\Capture day 1\Session 1\non-pregnant.ASF
:FULLY-SPECIFIED
:DEGREES
695
root -6.02338 16.3465 34.7848 140.663 -83.9787 -119.16
lowerback 1.34759 3.41536 4.77313
upperback -16.4916 4.0627 -1.54527
thorax -19.1835 0.542317 -4.98877
lowerneck -7.26104 -5.3595 -27.8419
upperneck 8.45987 -7.80051 29.84
head 6.19147 -3.55847 14.8618
rclavicle -8.15017e-015 -1.27222e-014
rhumerus -47.865 -59.8125 44.908
rradius 28.7083
rwrist 22.3155
rhand -12.8727 -8.42994
rfingers 7.12502
rthumb 13.2159 -37.991
lclavicle -8.15017e-015 -1.27222e-014
lhumerus -31.5823 34.3178 -14.1978
lradius 33.6025
lwrist 37.1491
lhand -29.4638 -30.5792
lfingers 7.12502
lthumb -2.79968 -0.617813
rfemur -19.1949 -19.0865 28.8549
rtibia 6.08626
rfoot -10.5728 25.5666
rtoes -1.23234
lfemur -28.2654 11.2026 -17.0231
ltibia 19.8062
lfoot -15.0155 -14.428
ltoes -9.30942
696
root -6.02093 16.3475 34.7861 139.95 -83.9888 -118.417
lowerback 1.27444 3.41123 4.80208
upperback -16.4821 4.06134 -1.50773
thorax -19.1207 0.545594 -4.95491
lowerneck -7.38309 -5.35065 -27.7187
upperneck 8.66486 -7.77886 29.6536
head 6.24985 -3.53924 14.7611
rclavicle 2.74323e-014 6.36111e-015
rhumerus -48.2755 -59.7305 44.7482
rradius 28.7111
rwrist 22.3872
rhand -12.7913 -8.33351
rfingers 7.12502
rthumb 13.2944 -37.8895
lclavicle 2.74323e-014 6.36111e-015
lhumerus -31.9828 34.0176 -13.6417
lradius 33.5504
lwrist 37.2895
lhand -29.3962 -30.4758
lfingers 7.12502
lthumb -2.73434 -0.513608
rfemur -19.1383 -19.1393 28.9202
rtibia 5.89453
rfoot -10.4544 25.5853
rtoes -1.2069
lfemur -28.3318 11.2147 -17.0023
ltibia 19.8185
lfoot -14.992 -14.5127
ltoes -9.24482
697
root -6.01848 16.3484 34.7872 139.28 -84.0052 -117.72
lowerback 1.19215 3.40387 4.81958
upperback -16.4675 4.05338 -1.47268
thorax -19.0458 0.548175 -4.91584
lowerneck -7.51235 -5.33683 -27.5885
upperneck 8.88099 -7.75079 29.4649
head 6.3106 -3.51649 14.6599
rclavicle 1.55052e-014 -3.57812e-014
rhumerus -48.6417 -59.5986 44.5043
rradius 28.7113
rwrist 22.3803
rhand -12.747 -8.25152
rfingers 7.12502
rthumb 13.3371 -37.8047
lclavicle 1.55052e-014 -3.57812e-014
lhumerus -32.3797 33.7102 -13.0765
lradius 33.4977
lwrist 37.4504
lhand -29.4039 -30.4843
lfingers 7.12502
lthumb -2.74176 -0.522205
rfemur -19.0934 -19.1945 28.977
rtibia 5.73172
rfoot -10.3644 25.5975
rtoes -1.22261
lfemur -28.3927 11.234 -16.9932
ltibia 19.8243
lfoot -14.9634 -14.6088
ltoes -9.1564
698
root -6.01597 16.3492 34.7882 138.647 -84.0273 -117.062
lowerback 1.10009 3.38836 4.82071
upperback -16.4479 4.03174 -1.43629
thorax -18.9601 0.547796 -4.86328
lowerneck -7.66169 -5.31257 -27.452
upperneck 9.11694 -7.70757 29.2801
head 6.37633 -3.48503 14.5628
rclavicle -9.34288e-015 1.98785e-014
rhumerus -48.9677 -59.441 44.1737
rradius 28.7164
rwrist 22.3021
rhand -12.7369 -8.18783
rfingers 7.12502
rthumb 13.3468 -37.7404
lclavicle -9.34288e-015 1.98785e-014
lhumerus -32.784 33.3602 -12.5067
lradius 33.4552
lwrist 37.6468
lhand -29.4366 -30.5129
lfingers 7.12502
lthumb -2.77335 -0.551141
rfemur -19.0732 -19.2514 29.0268
rtibia 5.61913
rfoot -10.3141 25.5993
rtoes -1.27864
lfemur -28.4474 11.2617 -16.9958
ltibia 19.8187
lfoot -14.9265 -14.7207
ltoes -9.03581
699
root -6.01343 16.35 34.7892 138.181 -84.0661 -116.578
lowerback 1.00652 3.36743 4.78973
upperback -16.4241 3.9982 -1.40587
thorax -18.8703 0.546465 -4.79808
lowerneck -7.82143 -5.28033 -27.2979
upperneck 9.36593 -7.65481 29.0928
head 6.44424 -3.44801 14.4632
rclavicle -2.127e-014 -6.36111e-015
rhumerus -49.2434 -59.2443 43.7515
rradius 28.7223
rwrist 22.1346
rhand -12.752 -8.15324
rfingers 7.12502
rthumb 13.3322 -37.7067
lclavicle -2.127e-014 -6.36111e-015
lhumerus -33.198 32.9749 -11.927
lradius 33.4374
lwrist 37.8597
lhand -29.4363 -30.4969
lfingers 7.12502
lthumb -2.77311 -0.535183
rfemur -19.0682 -19.3119 29.0486
rtibia 5.54822
rfoot -10.3008 25.5943
rtoes -1.37803
lfemur -28.4892 11.2895 -17.0266
ltibia 19.8025
lfoot -14.8884 -14.8333
ltoes -8.91462
700
root -6.011 16.3508 34.7901 137.771 -84.1188 -116.159
lowerback 0.916432 3.33925 4.74368
upperback -16.3986 3.95291 -1.37786
thorax -18.7829 0.541488 -4.72595
lowerneck -7.98496 -5.23904 -27.1424
upperneck 9.62847 -7.59085 28.9058
head 6.51367 -3.4056 14.3663
rclavicle 2.18663e-015 7.95139e-016
rhumerus -49.4904 -59.0429 43.2719
rradius 28.7371
rwrist 21.902
rhand -12.7858 -8.14721
rfingers 7.12502
rthumb 13.2996 -37.7028
lclavicle 2.18663e-015 7.95139e-016
lhumerus -33.618 32.5693 -11.3449
lradius 33.4328
lwrist 38.0866
lhand -29.3844 -30.4221
lfingers 7.12502
lthumb -2.72298 -0.459776
rfemur -19.0731 -19.3788 29.049
rtibia 5.51315
rfoot -10.3077 25.5851
rtoes -1.47772
lfemur -28.5184 11.3208 -17.0768
ltibia 19.7776
lfoot -14.8433 -14.9619
ltoes -8.76143
701
root -6.00866 16.3515 34.7909 137.253 -84.1703 -115.634
lowerback 0.831857 3.30981 4.70849
upperback -16.3764 3.90724 -1.35021
thorax -18.7033 0.533903 -4.66088
lowerneck -8.13353 -5.19367 -26.9838
upperneck 9.89387 -7.52473 28.7114
head 6.58035 -3.36357 14.2664
rclavicle 1.43125e-014 1.43125e-014
rhumerus -49.749 -58.8535 42.7984
rradius 28.7567
rwrist 21.6684
rhand -12.7949 -8.15987
rfingers 7.12502
rthumb 13.2909 -37.7161
lclavicle 1.43125e-014 1.43125e-014
lhumerus -34.0334 32.1615 -10.7485
lradius 33.446
lwrist 38.3108
lhand -29.2788 -30.297
lfingers 7.12502
lthumb -2.62099 -0.333319
rfemur -19.0766 -19.4526 29.0561
rtibia 5.48507
rfoot -10.3192 25.5754
rtoes -1.57425
lfemur -28.5434 11.3523 -17.1202
ltibia 19.7505
lfoot -14.7984 -15.0981
ltoes -8.60845
702
root -6.00644 16.3522 34.7917 136.648 -84.2249 -115.026
lowerback 0.753298 3.28567 4.68386
upperback -16.3569 3.8705 -1.32342
thorax -18.6299 0.528299 -4.60467
lowerneck -8.25965 -5.15254 -26.8472
upperneck 10.1558 -7.46488 28.5085
head 6.64481 -3.32744 14.1668
rclavicle 1.08338e-014 -2.78299e-014
rhumerus -50.0456 -58.6791 42.3801
rradius 28.782
rwrist 21.4478
rhand -12.7825 -8.17185
rfingers 7.12502
rthumb 13.3028 -37.7273
lclavicle 1.08338e-014 -2.78299e-014
lhumerus -34.4306 31.7819 -10.1226
lradius 33.4669
lwrist 38.5155
lhand -29.138 -30.1613
lfingers 7.12502
lthumb -2.48496 -0.195978
rfemur -19.0606 -19.536 29.0606
rtibia 5.4283
rfoot -10.2993 25.5753
rtoes -1.62207
lfemur -28.5677 11.3835 -17.1635
ltibia 19.7299
lfoot -14.7611 -15.2398
ltoes -8.47148
703
root -6.00414 16.3529 34.7924 135.854 -84.2605 -114.231
lowerback 0.682983 3.27523 4.68479
upperback -16.3416 3.85721 -1.29007
thorax -18.5644 0.530003 -4.5593
lowerneck -8.36889 -5.11488 -26.7587
upperneck 10.424 -7.4081 28.3087
head 6.71169 -3.29603 14.0794
rclavicle -5.75482e-014 5.56597e-015
rhumerus -50.3675 -58.4878 42.0122
rradius 28.8106
rwrist 21.2247
rhand -12.7461 -8.17475
rfingers 7.12502
rthumb 13.3379 -37.7279
lclavicle -5.75482e-014 5.56597e-015
lhumerus -34.7985 31.4557 -9.45671
lradius 33.4859
lwrist 38.6553
lhand -29.0185 -30.1033
lfingers 7.12502
lthumb -2.36953 -0.136738
rfemur -19.0078 -19.618 29.0925
rtibia 5.31016
rfoot -10.2444 25.5811
rtoes -1.65649
lfemur -28.5978 11.4165 -17.1773
ltibia 19.7245
lfoot -14.729 -15.3797
ltoes -8.33485
704
root -6.00161 16.3537 34.7928 134.973 -84.279 -113.346
lowerback 0.612071 3.27933 4.69817
upperback -16.328 3.86631 -1.25187
thorax -18.4978 0.540918 -4.5186
lowerneck -8.47302 -5.08289 -26.7163
upperneck 10.7016 -7.35546 28.114
head 6.78452 -3.2691 14.0047
rclavicle -3.54831e-014 -9.54166e-015
rhumerus -50.7231 -58.274 41.6926
rradius 28.8471
rwrist 20.9958
rhand -12.7002 -8.16899
rfingers 7.12502
rthumb 13.3822 -37.7192
lclavicle -3.54831e-014 -9.54166e-015
lhumerus -35.1271 31.1779 -8.74709
lradius 33.493
lwrist 38.7332
lhand -28.9416 -30.1183
lfingers 7.12502
lthumb -2.29528 -0.150875
rfemur -18.9239 -19.6925 29.1462
rtibia 5.12809
rfoot -10.1626 25.5881
rtoes -1.71295
lfemur -28.6362 11.4337 -17.1642
ltibia 19.7332
lfoot -14.7073 -15.4887
ltoes -8.24275
705
root -5.99889 16.3544 34.793 133.981 -84.2767 -112.347
lowerback 0.536322 3.29083 4.72691
upperback -16.3134 3.88808 -1.20677
thorax -18.4248 0.556626 -4.47995
lowerneck -8.5799 -5.05264 -26.6835
upperneck 10.9872 -7.30304 27.9145
head 6.86106 -3.24318 13.9308
rclavicle 4.67144e-015 -1.11319e-014
rhumerus -51.1107 -58.0576 41.4023
rradius 28.8881
rwrist 20.7725
rhand -12.6615 -8.12757
rfingers 7.12502
rthumb 13.4195 -37.6753
lclavicle 4.67144e-015 -1.11319e-014
lhumerus -35.4398 30.9551 -8.02661
lradius 33.4903
lwrist 38.7247
lhand -28.8879 -30.2188
lfingers 7.12502
lthumb -2.24342 -0.250813
rfemur -18.8142 -19.7596 29.2261
rtibia 4.89263
rfoot -10.0545 25.5984
rtoes -1.77819
lfemur -28.6806 11.4377 -17.1194
ltibia 19.7515
lfoot -14.6914 -15.5715
ltoes -8.18797
706
root -5.9958 16.3551 34.793 133.069 -84.2619 -111.426
lowerback 0.493367 3.32615 4.80896
upperback -16.3193 3.94218 -1.21557
thorax -18.392 0.570315 -4.5406
lowerneck -8.63448 -5.02496 -26.6237
upperneck 11.2662 -7.27699 27.7408
head 6.93457 -3.23274 13.8602
rclavicle -1.80894e-014 1.59028e-015
rhumerus -51.5782 -57.7115 41.1166
rradius 28.9507
rwrist 20.5121
rhand -12.6232 -8.07845
rfingers 7.12502
rthumb 13.4564 -37.6238
lclavicle -1.80894e-014 1.59028e-015
lhumerus -35.612 30.7226 -7.27032
lradius 33.4678
lwrist 38.65
lhand -28.8409 -30.3589
lfingers 7.12502
lthumb -2.19808 -0.390519
rfemur -18.6975 -19.8117 29.3139
rtibia 4.63997
rfoot -9.95299 25.6028
rtoes -1.89119
lfemur -28.724 11.4251 -17.0597
ltibia 19.7695
lfoot -14.678 -15.6199
ltoes -8.17435
707
root -5.99222 16.3558 34.7928 132.43 -84.2525 -110.783
lowerback 0.491532 3.38903 4.9468
upperback -16.341 4.03111 -1.30985
thorax -18.3953 0.579788 -4.7393
lowerneck -8.62831 -4.99994 -26.5077
upperneck 11.5206 -7.2849 27.6086
head 6.99987 -3.23999 13.7919
rclavicle -4.56211e-014 -5.56597e-015
rhumerus -52.1708 -57.2112 40.836
rradius 29.0397
rwrist 20.1881
rhand -12.5981 -8.02162
rfingers 7.12502
rthumb 13.4806 -37.5653
lclavicle -4.56211e-014 -5.56597e-015
lhumerus -35.6229 30.4868 -6.48467
lradius 33.4468
lwrist 38.5133
lhand -28.7947 -30.5107
lfingers 7.12502
lthumb -2.1534 -0.541852
rfemur -18.5784 -19.8481 29.3788
rtibia 4.38854
rfoot -9.85795 25.6044
rtoes -2.03123
lfemur -28.7556 11.3866 -17.0093
ltibia 19.7829
lfoot -14.6666 -15.6198
ltoes -8.20195
708
root -5.98848 16.3566 34.7925 131.998 -84.2517 -110.353
lowerback 0.472724 3.43844 5.03372
upperback -16.3469 4.09871 -1.38154
thorax -18.3717 0.591732 -4.87894
lowerneck -8.65449 -4.9694 -26.3909
upperneck 11.7774 -7.27319 27.4613
head 7.06544 -3.23584 13.7191
rclavicle -3.01159e-014 1.66979e-014
rhumerus -52.727 -56.7856 40.5085
rradius 29.127
rwrist 19.8816
rhand -12.5989 -7.94712
rfingers 7.12502
rthumb 13.4798 -37.4909
lclavicle -3.01159e-014 1.66979e-014
lhumerus -35.6956 30.2505 -5.71129
lradius 33.4621
lwrist 38.4197
lhand -28.7901 -30.6948
lfingers 7.12502
lthumb -2.14902 -0.725917
rfemur -18.4921 -19.8765 29.4185
rtibia 4.20948
rfoot -9.78977 25.6042
rtoes -2.13531
lfemur -28.7674 11.3348 -16.973
ltibia 19.7775
lfoot -14.6485 -15.5972
ltoes -8.23537
